<?xml version="1.0" encoding="UTF-8" standalone="no"?>
<!DOCTYPE svg PUBLIC "-//W3C//DTD SVG 1.1//EN" "http://www.w3.org/Graphics/SVG/1.1/DTD/svg11.dtd">
<svg xmlns:dc="http://purl.org/dc/elements/1.1/" version="1.1" xmlns:xl="http://www.w3.org/1999/xlink" xmlns="http://www.w3.org/2000/svg" viewBox="470 364 322 221" width="322" height="221">
  <defs/>
  <metadata> Produced by OmniGraffle 7.10.2 
    <dc:date>2019-05-16 05:11:19 +0000</dc:date>
  </metadata>
  <g id="Canvas_2" fill-opacity="1" fill="none" stroke-opacity="1" stroke-dasharray="none" stroke="none">
    <title>Canvas 2</title>
    <g id="Canvas_2: Layer 2">
      <title>Layer 2</title>
      <g id="Graphic_5">
        <path d="M 480.8 394.8 L 480.8 407.4 L 648 430.2 L 789 402.8 L 788.8 383.4 L 646.6 366.6 Z" fill="#4d352f"/>
        <path d="M 480.8 394.8 L 480.8 407.4 L 648 430.2 L 789 402.8 L 788.8 383.4 L 646.6 366.6 Z" stroke="black" stroke-linecap="round" stroke-linejoin="round" stroke-width="5"/>
      </g>
      <g id="Graphic_6">
        <path d="M 482.8 484.6 L 480.2 496.2 L 481.6 505.8 C 481.6 505.8 487.6 512.8 487.6 513 C 487.6 513.2 483.8 514.8 483.8 514.8 L 484.8 520.8 L 483.8 523.6 L 480.6 523.6 L 480.2 537.8 C 480.2 537.8 483 539.6 483 539.8 C 483 540 473 541.6 473 541.6 L 483.4 549.2 L 638.4 582 L 651.6 579.2 L 672.6 570.6 L 776.8 524.4 L 773.6 520 L 776 516.6 L 778.8 507.2 L 774.6 502.2 L 775.4 495.2 L 777.6 487.4 L 774.4 478 L 772.6 469.8 L 757.8 453.8 L 489.2 470.4 Z" fill="#6f544e"/>
        <path d="M 482.8 484.6 L 480.2 496.2 L 481.6 505.8 C 481.6 505.8 487.6 512.8 487.6 513 C 487.6 513.2 483.8 514.8 483.8 514.8 L 484.8 520.8 L 483.8 523.6 L 480.6 523.6 L 480.2 537.8 C 480.2 537.8 483 539.6 483 539.8 C 483 540 473 541.6 473 541.6 L 483.4 549.2 L 638.4 582 L 651.6 579.2 L 672.6 570.6 L 776.8 524.4 L 773.6 520 L 776 516.6 L 778.8 507.2 L 774.6 502.2 L 775.4 495.2 L 777.6 487.4 L 774.4 478 L 772.6 469.8 L 757.8 453.8 L 489.2 470.4 Z" stroke="black" stroke-linecap="round" stroke-linejoin="round" stroke-width="5"/>
      </g>
      <g id="Graphic_3">
        <path d="M 483.6 411.6 C 477.8 416.4 479 427.4 479 427.4 L 481.4 438.2 L 481.6 445.2 L 479.2 449.8 L 481.8 457.2 L 483.8 467 L 482.4 470 L 482.4 475.4 L 482.8 481.6 L 495 477.4 L 495.8 480.6 L 504.2 477.2 L 516.8 482.4 L 524 482.4 L 539.2 486 L 543.6 486 L 552.4 489.4 L 559.8 486.2 L 562.8 489.6 L 568.4 489.6 L 575.8 490.4 L 576.4 492.8 L 586 494 L 598.6 496.6 L 610 497 L 611.2 500.8 L 614.6 498.6 L 623.8 498.8 L 625 505 L 626.2 505 L 628.4 512.6 L 634.4 512.6 L 640 511.4 L 648.2 509.6 L 647.4 503.8 L 651.4 503.8 L 653.6 500.4 L 659 497 L 659.2 495 L 663.8 491.4 L 667 493.2 L 669.4 494.4 L 672.4 493 L 672.4 491.2 L 687.6 488.8 L 688.8 490.8 L 696.4 485 L 698.8 483.2 L 701 484.2 L 705.2 488.6 L 707.2 486.6 L 708.8 483 L 710.8 481 L 713.2 483 L 717.4 478.4 C 717.4 478.4 720.8 485.2 720.8 485.4 C 720.8 485.6 725.4 484.6 725.4 484.6 L 727.2 482 L 736 477.6 L 743.4 473.8 L 747.6 470 L 752.8 471 L 760 469.8 L 772 465.8 L 779.2 455.4 L 777.2 450 L 775.8 440.6 L 781.2 429.2 L 781.2 418.4 L 787.4 412.8 L 789 408.8 L 773.8 411.8 L 770.6 416.2 L 768.6 412.6 L 754.2 413.8 L 753 418 L 736.4 417 L 735.8 421.2 L 722 418.6 L 707.8 422.6 L 695.2 426.8 L 674.2 429.6 L 668 428.8 L 653.2 434 L 646 432 L 645.2 435.8 L 640 434.4 L 602.4 425.6 L 581.8 423.8 L 570.8 428.8 L 562 421.4 C 562 421.4 547.8 421.6 548 421.6 C 548.2 421.6 543 423.4 543 423.4 L 527.2 418.8 L 524.8 416.6 C 524.8 416.6 512.2 418 512.2 417.8 C 512.2 417.6 489.4 406.8 483.6 411.6 Z" fill="#ffff80"/>
        <path d="M 483.6 411.6 C 477.8 416.4 479 427.4 479 427.4 L 481.4 438.2 L 481.6 445.2 L 479.2 449.8 L 481.8 457.2 L 483.8 467 L 482.4 470 L 482.4 475.4 L 482.8 481.6 L 495 477.4 L 495.8 480.6 L 504.2 477.2 L 516.8 482.4 L 524 482.4 L 539.2 486 L 543.6 486 L 552.4 489.4 L 559.8 486.2 L 562.8 489.6 L 568.4 489.6 L 575.8 490.4 L 576.4 492.8 L 586 494 L 598.6 496.6 L 610 497 L 611.2 500.8 L 614.6 498.6 L 623.8 498.8 L 625 505 L 626.2 505 L 628.4 512.6 L 634.4 512.6 L 640 511.4 L 648.2 509.6 L 647.4 503.8 L 651.4 503.8 L 653.6 500.4 L 659 497 L 659.2 495 L 663.8 491.4 L 667 493.2 L 669.4 494.4 L 672.4 493 L 672.4 491.2 L 687.6 488.8 L 688.8 490.8 L 696.4 485 L 698.8 483.2 L 701 484.2 L 705.2 488.6 L 707.2 486.6 L 708.8 483 L 710.8 481 L 713.2 483 L 717.4 478.4 C 717.4 478.4 720.8 485.2 720.8 485.4 C 720.8 485.6 725.4 484.6 725.4 484.6 L 727.2 482 L 736 477.6 L 743.4 473.8 L 747.6 470 L 752.8 471 L 760 469.8 L 772 465.8 L 779.2 455.4 L 777.2 450 L 775.8 440.6 L 781.2 429.2 L 781.2 418.4 L 787.4 412.8 L 789 408.8 L 773.8 411.8 L 770.6 416.2 L 768.6 412.6 L 754.2 413.8 L 753 418 L 736.4 417 L 735.8 421.2 L 722 418.6 L 707.8 422.6 L 695.2 426.8 L 674.2 429.6 L 668 428.8 L 653.2 434 L 646 432 L 645.2 435.8 L 640 434.4 L 602.4 425.6 L 581.8 423.8 L 570.8 428.8 L 562 421.4 C 562 421.4 547.8 421.6 548 421.6 C 548.2 421.6 543 423.4 543 423.4 L 527.2 418.8 L 524.8 416.6 C 524.8 416.6 512.2 418 512.2 417.8 C 512.2 417.6 489.4 406.8 483.6 411.6 Z" stroke="black" stroke-linecap="round" stroke-linejoin="round" stroke-width="5"/>
      </g>
      <g id="Line_9">
        <path d="M 481.6 396.4 C 481.6 396.4 647.2652 413.88824 647.2652 413.88824 C 647.2652 413.88824 789 385.40204 789 385.40204" stroke="black" stroke-linecap="round" stroke-linejoin="round" stroke-width="1"/>
      </g>
      <g id="Line_10">
        <path d="M 647.2652 413.88824 C 647 413 647.318 427.4617 647.318 430.2" stroke="black" stroke-linecap="round" stroke-linejoin="round" stroke-width="1"/>
      </g>
    </g>
  </g>
</svg>
