<?xml version="1.0" encoding="UTF-8" standalone="no"?>
<!DOCTYPE svg PUBLIC "-//W3C//DTD SVG 1.1//EN" "http://www.w3.org/Graphics/SVG/1.1/DTD/svg11.dtd">
<svg xmlns:dc="http://purl.org/dc/elements/1.1/" xmlns="http://www.w3.org/2000/svg" xmlns:xl="http://www.w3.org/1999/xlink" version="1.1" viewBox="9 49 1012 690" width="1012" height="690">
  <defs/>
  <metadata> Produced by OmniGraffle 7.10.2 
    <dc:date>2019-05-19 04:18:39 +0000</dc:date>
  </metadata>
  <g id="Canvas_2" stroke-opacity="1" stroke="none" fill="none" fill-opacity="1" stroke-dasharray="none">
    <title>Canvas 2</title>
    <g id="Canvas_2: Layer 2">
      <title>Layer 2</title>
      <g id="Graphic_11">
        <rect x="9" y="49" width="1012" height="690" fill="white" fill-opacity="0"/>
      </g>
      <g id="Graphic_5">
        <path d="M 788 394.8 L 788 407.4 L 620.8 430.2 L 479.8 402.8 L 480 383.4 L 622.2 366.6 Z" fill="#4d352f"/>
        <path d="M 788 394.8 L 788 407.4 L 620.8 430.2 L 479.8 402.8 L 480 383.4 L 622.2 366.6 Z" stroke="black" stroke-linecap="round" stroke-linejoin="round" stroke-width="5"/>
      </g>
      <g id="Graphic_6">
        <path d="M 768 484.6 L 770.6 496.2 L 769.2 505.8 C 769.2 505.8 763.2 512.8 763.2 513 C 763.2 513.2 767 514.8 767 514.8 L 766 520.8 L 767 523.6 L 770.2 523.6 L 770.6 537.8 C 770.6 537.8 767.8 539.6 767.8 539.8 C 767.8 540 777.8 541.6 777.8 541.6 L 767.4 549.2 L 612.4 582 L 599.2 579.2 L 578.2 570.6 L 474 524.4 L 477.2 520 L 474.8 516.6 L 472 507.2 L 476.2 502.2 L 475.4 495.2 L 473.2 487.4 L 476.4 478 L 478.2 469.8 L 493 453.8 L 761.6 470.4 Z" fill="#6f544e"/>
        <path d="M 768 484.6 L 770.6 496.2 L 769.2 505.8 C 769.2 505.8 763.2 512.8 763.2 513 C 763.2 513.2 767 514.8 767 514.8 L 766 520.8 L 767 523.6 L 770.2 523.6 L 770.6 537.8 C 770.6 537.8 767.8 539.6 767.8 539.8 C 767.8 540 777.8 541.6 777.8 541.6 L 767.4 549.2 L 612.4 582 L 599.2 579.2 L 578.2 570.6 L 474 524.4 L 477.2 520 L 474.8 516.6 L 472 507.2 L 476.2 502.2 L 475.4 495.2 L 473.2 487.4 L 476.4 478 L 478.2 469.8 L 493 453.8 L 761.6 470.4 Z" stroke="black" stroke-linecap="round" stroke-linejoin="round" stroke-width="5"/>
      </g>
      <g id="Graphic_3">
        <path d="M 783.2972 411.6 C 789.0972 416.4 787.8972 427.4 787.8972 427.4 L 785.4972 438.2 L 785.2972 445.2 L 787.6972 449.8 L 785.0972 457.2 L 783.0972 467 L 784.4972 470 L 784.4972 475.4 L 784.0972 481.6 L 771.8972 477.4 L 771.0972 480.6 L 762.6972 477.2 L 750.0972 482.4 L 742.8972 482.4 L 727.6972 486 L 723.2972 486 L 714.4972 489.4 L 707.0972 486.2 L 704.0972 489.6 L 698.4972 489.6 L 691.0972 490.4 L 690.4972 492.8 L 680.8972 494 L 668.2972 496.6 L 656.8972 497 L 655.6972 500.8 L 652.2972 498.6 L 643.0972 498.8 L 641.8972 505 L 640.6972 505 L 638.4972 512.6 L 632.4972 512.6 L 626.8972 511.4 L 618.6972 509.6 L 619.4972 503.8 L 615.4972 503.8 L 613.2972 500.4 L 607.8972 497 L 607.6972 495 L 603.0972 491.4 L 599.8972 493.2 L 597.4972 494.4 L 594.4972 493 L 594.4972 491.2 L 579.2972 488.8 L 578.0972 490.8 L 570.4972 485 L 568.0972 483.2 L 565.8972 484.2 L 561.6972 488.6 L 559.6972 486.6 L 558.0972 483 L 556.0972 481 L 553.6972 483 L 549.4972 478.4 C 549.4972 478.4 546.0972 485.2 546.0972 485.4 C 546.0972 485.6 541.4972 484.6 541.4972 484.6 L 539.6972 482 L 530.8972 477.6 L 523.4972 473.8 L 519.2972 470 L 514.0972 471 L 506.8972 469.8 L 494.8972 465.8 L 487.6972 455.4 L 489.6972 450 L 491.0972 440.6 L 485.6972 429.2 L 485.6972 418.4 L 479.4972 412.8 L 477.8972 408.8 L 493.0972 411.8 L 496.2972 416.2 L 498.2972 412.6 L 512.6972 413.8 L 513.8972 418 L 530.4972 417 L 531.0972 421.2 L 544.8972 418.6 L 559.0972 422.6 L 571.6972 426.8 L 592.6972 429.6 L 598.8972 428.8 L 613.6972 434 L 620.8972 432 L 621.6972 435.8 L 626.8972 434.4 L 664.4972 425.6 L 685.0972 423.8 L 696.0972 428.8 L 704.8972 421.4 C 704.8972 421.4 719.0972 421.6 718.8972 421.6 C 718.6972 421.6 723.8972 423.4 723.8972 423.4 L 739.6972 418.8 L 742.0972 416.6 C 742.0972 416.6 754.6972 418 754.6972 417.8 C 754.6972 417.6 777.4972 406.8 783.2972 411.6 Z" fill="#ffff80"/>
        <path d="M 783.2972 411.6 C 789.0972 416.4 787.8972 427.4 787.8972 427.4 L 785.4972 438.2 L 785.2972 445.2 L 787.6972 449.8 L 785.0972 457.2 L 783.0972 467 L 784.4972 470 L 784.4972 475.4 L 784.0972 481.6 L 771.8972 477.4 L 771.0972 480.6 L 762.6972 477.2 L 750.0972 482.4 L 742.8972 482.4 L 727.6972 486 L 723.2972 486 L 714.4972 489.4 L 707.0972 486.2 L 704.0972 489.6 L 698.4972 489.6 L 691.0972 490.4 L 690.4972 492.8 L 680.8972 494 L 668.2972 496.6 L 656.8972 497 L 655.6972 500.8 L 652.2972 498.6 L 643.0972 498.8 L 641.8972 505 L 640.6972 505 L 638.4972 512.6 L 632.4972 512.6 L 626.8972 511.4 L 618.6972 509.6 L 619.4972 503.8 L 615.4972 503.8 L 613.2972 500.4 L 607.8972 497 L 607.6972 495 L 603.0972 491.4 L 599.8972 493.2 L 597.4972 494.4 L 594.4972 493 L 594.4972 491.2 L 579.2972 488.8 L 578.0972 490.8 L 570.4972 485 L 568.0972 483.2 L 565.8972 484.2 L 561.6972 488.6 L 559.6972 486.6 L 558.0972 483 L 556.0972 481 L 553.6972 483 L 549.4972 478.4 C 549.4972 478.4 546.0972 485.2 546.0972 485.4 C 546.0972 485.6 541.4972 484.6 541.4972 484.6 L 539.6972 482 L 530.8972 477.6 L 523.4972 473.8 L 519.2972 470 L 514.0972 471 L 506.8972 469.8 L 494.8972 465.8 L 487.6972 455.4 L 489.6972 450 L 491.0972 440.6 L 485.6972 429.2 L 485.6972 418.4 L 479.4972 412.8 L 477.8972 408.8 L 493.0972 411.8 L 496.2972 416.2 L 498.2972 412.6 L 512.6972 413.8 L 513.8972 418 L 530.4972 417 L 531.0972 421.2 L 544.8972 418.6 L 559.0972 422.6 L 571.6972 426.8 L 592.6972 429.6 L 598.8972 428.8 L 613.6972 434 L 620.8972 432 L 621.6972 435.8 L 626.8972 434.4 L 664.4972 425.6 L 685.0972 423.8 L 696.0972 428.8 L 704.8972 421.4 C 704.8972 421.4 719.0972 421.6 718.8972 421.6 C 718.6972 421.6 723.8972 423.4 723.8972 423.4 L 739.6972 418.8 L 742.0972 416.6 C 742.0972 416.6 754.6972 418 754.6972 417.8 C 754.6972 417.6 777.4972 406.8 783.2972 411.6 Z" stroke="black" stroke-linecap="round" stroke-linejoin="round" stroke-width="5"/>
      </g>
      <g id="Line_9">
        <path d="M 788 396.4 C 788 396.4 622.3348 413.88824 622.3348 413.88824 C 622.3348 413.88824 480.6 385.40204 480.6 385.40204" stroke="black" stroke-linecap="round" stroke-linejoin="round" stroke-width="1"/>
      </g>
      <g id="Line_10">
        <path d="M 622.3348 413.88824 C 622.6 413 622.5945 427.4617 622.5945 430.2" stroke="black" stroke-linecap="round" stroke-linejoin="round" stroke-width="1"/>
      </g>
    </g>
  </g>
</svg>
